<?xml version="1.0" standalone="no"?>
<!DOCTYPE svg PUBLIC "-//W3C//DTD SVG 20010904//EN"
 "http://www.w3.org/TR/2001/REC-SVG-20010904/DTD/svg10.dtd">
<svg version="1.0" xmlns="http://www.w3.org/2000/svg"
 width="310.000000pt" height="310.000000pt" viewBox="0 0 310.000000 310.000000"
 preserveAspectRatio="xMidYMid meet">
<g transform="translate(0.000000,310.000000) scale(0.100000,-0.100000)"
fill="#000000" stroke="none">
<path d="M545 2373 c-135 -26 -257 -112 -325 -229 -61 -105 -63 -124 -63 -724
0 -300 3 -561 7 -580 25 -125 193 -158 273 -53 l28 36 3 207 3 207 152 -1 152
-1 1 -180 c0 -99 4 -196 8 -215 17 -88 124 -142 209 -106 38 15 87 73 87 102
1 14 5 11 15 -11 61 -130 227 -138 289 -15 11 23 15 75 16 221 0 106 3 195 5
199 2 4 76 7 163 7 94 0 172 5 193 12 117 38 138 199 36 275 -26 19 -44 21
-213 24 l-185 3 3 209 c3 194 4 211 24 237 67 89 203 86 257 -6 10 -17 21 -54
24 -82 3 -28 15 -64 27 -82 62 -92 204 -93 258 -1 11 19 21 34 22 34 2 0 3
-222 3 -493 0 -271 3 -508 7 -527 13 -71 95 -125 173 -115 45 6 68 20 100 62
l28 36 3 208 3 207 137 0 c75 0 144 -2 153 -4 14 -4 16 -28 16 -182 0 -97 3
-193 6 -212 12 -63 87 -120 158 -120 51 0 118 50 138 104 8 19 11 210 11 591
-1 483 -3 571 -16 617 -26 86 -63 148 -123 209 -96 95 -208 139 -347 134 -209
-8 -377 -145 -434 -355 l-12 -45 -14 54 c-52 198 -226 339 -428 346 -88 3
-199 -22 -247 -55 -15 -11 -31 -20 -36 -20 -13 -1 -67 -54 -111 -109 -40 -50
-82 -143 -82 -181 0 -34 -17 -22 -25 18 -9 48 -58 140 -103 193 -47 55 -142
115 -211 136 -53 15 -173 24 -216 16z m160 -333 c63 -39 69 -63 72 -287 l2
-203 -155 0 -155 0 3 209 c3 238 6 247 86 287 48 25 99 23 147 -6z m1860 0
c64 -40 70 -63 71 -287 l1 -203 -154 0 -154 0 3 209 c3 237 6 247 86 287 48
25 100 23 147 -6z"/>
</g>
</svg>
